<?xml version="1.0" encoding="iso-8859-1"?>
<!-- Generator: Adobe Illustrator 19.0.0, SVG Export Plug-In . SVG Version: 6.00 Build 0)  -->
<svg version="1.1" id="Capa_1" xmlns="http://www.w3.org/2000/svg" xmlns:xlink="http://www.w3.org/1999/xlink" x="0px" y="0px"
	 viewBox="0 0 512 512" style="enable-background:new 0 0 512 512;" xml:space="preserve">
<path style="fill:#E2EEFD;" d="M131.067,320.837c-10.974-9.646-25.332-15.496-41.058-15.496c-29.305,0-53.883,20.299-60.607,47.666
	h77.943C110.695,339.373,119.392,327.861,131.067,320.837z"/>
<g style="opacity:0.1;">
	<path d="M105.702,307.345c-5.015-1.306-10.272-2.004-15.693-2.004c-29.305,0-53.883,20.299-60.607,47.666h31.386
		C66.268,330.702,83.609,313.097,105.702,307.345z"/>
</g>
<g>
	<path style="fill:#FFFFFF;" d="M205.71,346.28c-7.614-19.215-26.274-32.803-48.104-32.803c-24.301,0-44.685,16.833-50.261,39.529
		h83.949C195.656,350.268,200.494,348.029,205.71,346.28z"/>
	<path style="fill:#FFFFFF;" d="M407.258,327.982c-7.947-6.456-18.057-10.328-29.071-10.328c-10.258,0-19.732,3.356-27.405,9.031
		c7.656,6.869,13.275,15.983,15.815,26.321h25.616C394.628,343.176,399.974,334.51,407.258,327.982z"/>
</g>
<path style="fill:#E2EEFD;" d="M487.709,353.007c-5.297-21.561-24.658-37.553-47.748-37.553c-23.088,0-42.452,15.992-47.748,37.553
	H487.709z"/>
<g style="opacity:0.1;">
	<path d="M173.172,315.878c-4.914-1.556-10.141-2.4-15.566-2.4c-24.301,0-44.685,16.833-50.261,39.529h31.133
		C142.81,335.377,156.077,321.291,173.172,315.878z"/>
</g>
<path style="fill:#E2EEFD;" d="M306.105,314.505c-8.505,12.966-21.042,23.09-35.862,28.622c10.101,1.781,19.268,5.052,26.956,9.88
	h69.398c-5.576-22.696-25.96-39.529-50.261-39.529C312.832,313.478,309.413,313.838,306.105,314.505z"/>
<g>
	<path style="fill:#FFB98A;" d="M170.517,274.793V237.37c-1.9-0.61-3.922-0.948-6.025-0.948c-10.869,0-19.68,8.813-19.68,19.68
		c0,10.87,8.811,19.682,19.68,19.682c2.104,0,4.126-0.338,6.026-0.949C170.518,274.82,170.517,274.807,170.517,274.793z"/>
	<path style="fill:#FFB98A;" d="M324.002,236.422c-2.104,0-4.125,0.338-6.025,0.948v37.423c0,0.014-0.001,0.027-0.001,0.042
		c1.9,0.61,3.923,0.948,6.026,0.948c10.867,0,19.679-8.811,19.679-19.682C343.681,245.234,334.869,236.422,324.002,236.422z"/>
</g>
<path id="SVGCleanerId_0" style="fill:#FFB98A;" d="M270.243,343.127c-8.086,3.018-16.843,4.683-25.995,4.683
	c-9.153,0-17.911-1.664-25.998-4.683c-29.397,5.183-50.93,22.971-50.93,55.056v60.636c21.293,3.866,48.385,6.184,77.889,6.184
	c28.621,0,54.975-2.18,75.964-5.84v-60.98C321.173,366.098,299.64,348.311,270.243,343.127z"/>
<g>
	<path id="SVGCleanerId_0_1_" style="fill:#FFB98A;" d="M270.243,343.127c-8.086,3.018-16.843,4.683-25.995,4.683
		c-9.153,0-17.911-1.664-25.998-4.683c-29.397,5.183-50.93,22.971-50.93,55.056v60.636c21.293,3.866,48.385,6.184,77.889,6.184
		c28.621,0,54.975-2.18,75.964-5.84v-60.98C321.173,366.098,299.64,348.311,270.243,343.127z"/>
</g>
<g style="opacity:0.1;">
	<path d="M185,398.183c0-28.3,16.757-45.47,40.882-52.685c-2.599-0.662-5.15-1.444-7.631-2.37
		c-29.397,5.183-50.93,22.971-50.93,55.056v60.636c5.52,1.002,11.438,1.898,17.68,2.679v-63.316H185z"/>
</g>
<path style="fill:#FFD5B3;" d="M291.939,237.46c-1.85,0-3.561-0.988-4.484-2.591l-13.879-24.035l-13.878,24.035
	c-0.925,1.603-2.635,2.591-4.485,2.591h-84.696v37.333c0,40.327,33.009,73.017,73.731,73.017c40.719,0,73.729-32.69,73.729-73.017
	V237.46H291.939z"/>
<path style="opacity:0.1;fill:#2F003A;enable-background:new    ;" d="M191,274.793V237.46h-20.483v37.333
	c0,40.327,33.009,73.017,73.731,73.017c3.477,0,6.892-0.256,10.241-0.717C218.618,342.153,191,311.677,191,274.793z"/>
<path style="fill:#3A5792;" d="M284.126,135.469c-0.712,0.113-1.437,0.188-2.181,0.188h-75.397c-0.744,0-1.469-0.075-2.181-0.188
	c-28.036,14.354-47.246,43.345-47.246,76.698v20.112c0,2.861,2.319,5.181,5.179,5.181h92.912c1.851,0,3.561-0.988,4.485-2.591
	l13.878-24.035l13.879,24.035c0.924,1.603,2.635,2.591,4.484,2.591h34.253c2.86,0,5.179-2.319,5.179-5.181v-20.112
	C331.371,178.814,312.162,149.823,284.126,135.469z"/>
<path style="opacity:0.1;fill:#2F003A;enable-background:new    ;" d="M235.656,135.657h-29.108c-0.744,0-1.469-0.075-2.181-0.188
	c-28.036,14.354-47.246,43.345-47.246,76.698v20.112c0,2.861,2.319,5.181,5.179,5.181h31.628c-2.86,0-5.179-2.319-5.179-5.181
	v-20.112C188.75,178.951,207.807,150.071,235.656,135.657z"/>
<path style="fill:#FFFFFF;" d="M295.737,121.866c0,7.617-6.175,13.791-13.792,13.791h-75.397c-7.617,0-13.792-6.174-13.792-13.791
	v-11.953c0-7.619,6.175-13.793,13.792-13.793h75.397c7.617,0,13.792,6.174,13.792,13.793V121.866z"/>
<g style="opacity:0.1;">
	<path d="M213.019,121.866v-11.953c0-7.619,6.175-13.793,13.792-13.793h-20.263c-7.617,0-13.792,6.174-13.792,13.793v11.953
		c0,7.617,6.175,13.791,13.792,13.791h20.263C219.193,135.657,213.019,129.483,213.019,121.866z"/>
</g>
<g>
	<circle style="fill:#A2E8F9;" cx="143.7" cy="24.691" r="16.09"/>
	<ellipse style="fill:#A2E8F9;" cx="453.15" cy="55.781" rx="16.09" ry="16.09"/>
	<circle style="fill:#A2E8F9;" cx="347.08" cy="75.901" r="16.09"/>
	<circle style="fill:#A2E8F9;" cx="52.99" cy="82.48" r="16.09"/>
</g>
<path d="M504.5,345.507h-11.24c-8.026-22.378-29.159-37.553-53.299-37.553c-12.188,0-23.611,3.87-32.97,10.579
	c-8.387-5.334-18.291-8.379-28.805-8.379c-9.731,0-18.942,2.609-26.91,7.227c-9.164-6.706-20.267-10.785-32.17-11.335
	c3.042-7.133,5.071-14.789,5.919-22.789c14.513-0.54,26.155-12.51,26.155-27.155c0-9.521-4.932-17.896-12.364-22.75
	c0.03-0.354,0.055-0.71,0.055-1.072v-20.112c0-31.754-16.017-59.858-40.452-76.832c3.009-3.673,4.818-8.362,4.818-13.469v-11.953
	c0-11.741-9.552-21.293-21.292-21.293h-75.397c-11.74,0-21.292,9.552-21.292,21.293v11.953c0,5.106,1.81,9.796,4.818,13.469
	c-24.436,16.974-40.453,45.078-40.453,76.832v20.112c0,0.362,0.024,0.718,0.054,1.072c-7.432,4.855-12.364,13.23-12.364,22.75
	c0,14.646,11.643,26.615,26.157,27.155c0.896,8.47,3.137,16.544,6.482,24.03c-3.996-0.85-8.124-1.31-12.345-1.31
	c-9.144,0-17.871,2.091-25.69,5.857c-11.769-8.847-26.323-13.994-41.907-13.994c-30.26,0-56.703,19.322-66.231,47.666H7.5
	c-4.142,0-7.5,3.357-7.5,7.5s3.358,7.5,7.5,7.5h164.373c-7.916,10.239-12.053,23.007-12.053,37.676v51.694
	c-23.892-5.173-31.308-11.105-32.12-12.94c-0.095-4.06-3.416-7.321-7.498-7.321c-4.142,0-7.5,3.357-7.5,7.5
	c0,11.811,13.799,20.654,42.187,27.036c23.952,5.385,55.686,8.35,89.357,8.35c57.403,0,107.166-8.736,123.827-21.74
	c3.266-2.548,3.847-7.261,1.298-10.526c-2.548-3.266-7.262-3.845-10.526-1.298c-4.94,3.855-15.371,7.728-30.172,10.934v-51.689
	c0-14.669-4.137-27.436-12.054-37.676H504.5c4.143,0,7.5-3.357,7.5-7.5C512,348.864,508.643,345.507,504.5,345.507z M395.66,329.326
	c-3.803,4.784-6.863,10.227-8.998,16.181h-14.5c-2.229-6.306-5.448-12.067-9.459-17.126c4.77-2.082,10.013-3.227,15.483-3.227
	C384.431,325.154,390.377,326.648,395.66,329.326z M244.248,340.31c-36.52,0-66.231-29.391-66.231-65.517V244.96h77.196
	c4.516,0,8.724-2.43,10.981-6.341l7.383-12.786l7.381,12.782c2.257,3.913,6.465,6.345,10.982,6.345h18.537v29.833
	C310.477,310.919,280.767,340.31,244.248,340.31z M325.477,268.185V244.96h0.716c0.753,0,1.486-0.078,2.204-0.205
	c4.547,1.769,7.784,6.182,7.784,11.347C336.181,262.318,331.498,267.453,325.477,268.185z M200.256,109.913
	c0-3.47,2.823-6.293,6.292-6.293h75.397c2.943,0,5.413,2.034,6.098,4.768h-48.274c-4.142,0-7.5,3.357-7.5,7.5s3.358,7.5,7.5,7.5
	h48.274c-0.683,2.734-3.153,4.769-6.098,4.769h-75.397c-3.469,0-6.292-2.822-6.292-6.291L200.256,109.913L200.256,109.913z
	 M164.622,212.167c0-29.721,16.732-55.629,41.356-69.038c0.191,0.005,0.377,0.028,0.57,0.028h75.397
	c0.192,0,0.378-0.023,0.569-0.028c24.624,13.409,41.357,39.317,41.357,69.038v17.793h-30.59l-13.21-22.876
	c-1.34-2.32-3.815-3.75-6.495-3.75s-5.155,1.43-6.495,3.75l-13.209,22.876h-89.251L164.622,212.167L164.622,212.167z
	 M152.312,256.102c0-5.165,3.237-9.578,7.785-11.347c0.717,0.127,1.451,0.205,2.204,0.205h0.716v23.225
	C156.996,267.453,152.312,262.318,152.312,256.102z M195.406,342.29c-2.154,0.988-4.231,2.058-6.219,3.217h-71.159
	c7.371-14.814,22.518-24.529,39.578-24.529C173.395,320.978,187.542,329.304,195.406,342.29z M90.009,312.841
	c10.325,0,20.08,2.877,28.431,7.948c-7.418,6.553-13.221,14.987-16.66,24.718H39.853C48.549,325.875,67.995,312.841,90.009,312.841z
	 M313.673,452.637c-2.466,0.387-5.012,0.754-7.637,1.102V418.33c0-4.143-3.357-7.5-7.5-7.5s-7.5,3.357-7.5,7.5v37.096
	c-14.018,1.309-29.726,2.076-46.79,2.076c-16.275,0-32.127-0.725-46.789-2.09V418.33c0-4.143-3.358-7.5-7.5-7.5s-7.5,3.357-7.5,7.5
	v35.402c-2.596-0.344-5.153-0.703-7.637-1.09v-54.46c0-15.918,5.887-28.31,17.498-36.833c6.803-4.994,15.376-8.527,25.313-10.502
	c0.772,0.267,1.542,0.538,2.324,0.781v9.614c0,4.143,3.358,7.5,7.5,7.5s7.5-3.357,7.5-7.5v-6.477
	c3.052,0.347,6.148,0.543,9.292,0.543c3.143,0,6.238-0.196,9.289-0.542v6.476c0,4.143,3.358,7.5,7.5,7.5c4.143,0,7.5-3.357,7.5-7.5
	v-9.613c0.783-0.244,1.553-0.516,2.325-0.782c9.936,1.975,18.51,5.508,25.313,10.502c11.61,8.522,17.498,20.915,17.498,36.833
	v54.455H313.673z M299.306,345.507c-2.833-1.652-5.843-3.13-9.011-4.435c7.814-5.35,14.629-12.021,20.136-19.685
	c1.938-0.261,3.905-0.41,5.905-0.41c17.06,0,32.206,9.715,39.577,24.529h-56.607V345.507z M402.972,345.507
	c7.036-13.643,21.135-22.553,36.989-22.553s29.952,8.909,36.988,22.553H402.972z"/>
<path d="M331.611,488.282c-26.465,4.985-56.676,7.62-87.365,7.62c-47.25,0-91.568-6.061-124.79-17.065
	c-29.759-9.858-47.525-22.941-47.525-34.998c0-4.143-3.358-7.5-7.5-7.5s-7.5,3.357-7.5,7.5c0,19.684,19.99,36.709,57.808,49.236
	c34.704,11.496,80.697,17.827,129.507,17.827c31.606,0,62.776-2.725,90.143-7.88c4.07-0.767,6.748-4.688,5.981-8.759
	C339.604,490.192,335.682,487.509,331.611,488.282z"/>
<path d="M365.573,392.053c-3.976-1.167-8.142,1.109-9.309,5.084s1.109,8.142,5.084,9.309c34.057,9.998,55.214,24.326,55.214,37.394
	c0,11.963-17.549,24.973-46.942,34.802c-3.928,1.315-6.048,5.564-4.734,9.492c1.051,3.139,3.975,5.123,7.112,5.123
	c0.788,0,1.591-0.125,2.38-0.389c47.264-15.806,57.185-35.386,57.185-49.028C431.563,422.935,408.127,404.545,365.573,392.053z"/>
<path d="M263.54,290.606c-4.143,0-7.5,3.357-7.5,7.5c0,6.4-5.29,11.607-11.792,11.607c-6.503,0-11.794-5.207-11.794-11.607
	c0-4.143-3.358-7.5-7.5-7.5s-7.5,3.357-7.5,7.5c0,14.671,12.02,26.607,26.794,26.607c14.773,0,26.792-11.937,26.792-26.607
	C271.04,293.964,267.683,290.606,263.54,290.606z"/>
<path d="M245.471,288.645h4.104c4.142,0,7.5-3.357,7.5-7.5c0-4.009-3.146-7.283-7.104-7.489v-4.827c0-4.143-3.358-7.5-7.5-7.5
	s-7.5,3.357-7.5,7.5v9.316C234.971,283.935,239.681,288.645,245.471,288.645z"/>
<path d="M225.053,259.74c-2.929-2.928-7.678-2.928-10.606,0c-3.134,3.135-8.233,3.135-11.368,0
	c-2.929-2.93-7.678-2.929-10.606,0.001c-2.929,2.929-2.928,7.678,0.001,10.606c4.491,4.491,10.391,6.736,16.29,6.736
	s11.799-2.246,16.29-6.736C227.982,267.418,227.982,262.67,225.053,259.74z"/>
<path d="M294.671,259.741c-2.927-2.929-7.676-2.93-10.606-0.001c-3.133,3.133-8.234,3.133-11.367,0
	c-2.931-2.931-7.68-2.928-10.606,0.001c-2.929,2.93-2.928,7.679,0.001,10.606c4.491,4.49,10.39,6.734,16.289,6.734
	s11.798-2.244,16.289-6.734C297.599,267.42,297.6,262.671,294.671,259.741z"/>
<path d="M214.02,424.26c-1.97,0-3.91,0.8-5.3,2.2c-1.4,1.399-2.2,3.33-2.2,5.3s0.8,3.91,2.2,5.3c1.4,1.4,3.33,2.2,5.3,2.2
	c1.98,0,3.91-0.8,5.31-2.2c1.39-1.39,2.19-3.319,2.19-5.3c0-1.97-0.8-3.9-2.19-5.3C217.93,425.06,216,424.26,214.02,424.26z"/>
<path d="M274.47,424.26c-1.979,0-3.91,0.8-5.3,2.2c-1.4,1.399-2.2,3.33-2.2,5.3c0,1.98,0.8,3.91,2.2,5.3c1.39,1.4,3.32,2.2,5.3,2.2
	c1.97,0,3.91-0.8,5.3-2.2c1.4-1.39,2.2-3.319,2.2-5.3c0-1.97-0.8-3.9-2.2-5.3C278.38,425.06,276.439,424.26,274.47,424.26z"/>
<path d="M66.727,172.573c0,4.143,3.358,7.5,7.5,7.5h42.409c5.758,0,10.442,4.775,10.442,10.643c0,5.867-4.685,10.641-10.442,10.641
	H108c-4.142,0-7.5,3.357-7.5,7.5s3.358,7.5,7.5,7.5h8.636c14.029,0,25.442-11.502,25.442-25.641
	c0-14.14-11.414-25.643-25.442-25.643H74.227C70.085,165.073,66.727,168.431,66.727,172.573z"/>
<path d="M99.509,278.5c4.142,0,7.5-3.357,7.5-7.5v-18.258c0-8.783-7.023-15.93-15.656-15.93H61.996
	c-5.758,0-10.442-4.773-10.442-10.641c0-5.867,4.684-10.64,10.442-10.64h10.085c4.142,0,7.5-3.357,7.5-7.5s-3.358-7.5-7.5-7.5
	H61.996c-14.029,0-25.442,11.502-25.442,25.64c0,14.139,11.413,25.641,25.442,25.641h29.357c0.261,0,0.656,0.371,0.656,0.93V271
	C92.009,275.143,95.367,278.5,99.509,278.5z"/>
<path d="M397.824,203.044h42.409c5.758,0,10.442,4.775,10.442,10.643c0,5.867-4.685,10.641-10.442,10.641H430
	c-4.143,0-7.5,3.357-7.5,7.5s3.357,7.5,7.5,7.5h10.233c14.029,0,25.442-11.502,25.442-25.641c0-14.14-11.413-25.643-25.442-25.643
	h-42.409c-5.757,0-10.44-4.773-10.44-10.641c0-5.868,4.684-10.643,10.44-10.643h35.036c4.142,0,7.5-3.357,7.5-7.5
	s-3.358-7.5-7.5-7.5h-35.036c-14.028,0-25.44,11.503-25.44,25.643C372.384,191.542,383.796,203.044,397.824,203.044z"/>
<path d="M423.106,295.276c4.143,0,7.5-3.357,7.5-7.5v-12.064c0-8.783-7.023-15.93-15.656-15.93h-29.356
	c-5.759,0-10.443-4.773-10.443-10.641c0-5.867,4.685-10.64,10.443-10.64h10.084c4.143,0,7.5-3.357,7.5-7.5s-3.357-7.5-7.5-7.5
	h-10.084c-14.029,0-25.443,11.502-25.443,25.64c0,14.139,11.414,25.641,25.443,25.641h29.356c0.262,0,0.656,0.371,0.656,0.93v12.064
	C415.606,291.919,418.964,295.276,423.106,295.276z"/>
<path d="M143.699,48.285c13.007,0,23.588-10.584,23.588-23.594S156.706,1.098,143.699,1.098c-13.007,0-23.589,10.584-23.589,23.594
	S130.692,48.285,143.699,48.285z M143.699,16.098c4.736,0,8.588,3.855,8.588,8.594s-3.853,8.594-8.588,8.594
	c-4.736,0-8.589-3.855-8.589-8.594S138.963,16.098,143.699,16.098z"/>
<path d="M453.151,79.375c13.007,0,23.589-10.584,23.589-23.594s-10.582-23.594-23.589-23.594s-23.588,10.584-23.588,23.594
	C429.564,68.791,440.145,79.375,453.151,79.375z M453.151,47.188c4.736,0,8.589,3.855,8.589,8.594c0,4.738-3.853,8.594-8.589,8.594
	c-4.735,0-8.588-3.855-8.588-8.594C444.564,51.043,448.416,47.188,453.151,47.188z"/>
<path d="M347.08,99.494c13.007,0,23.589-10.584,23.589-23.593c0-13.01-10.582-23.595-23.589-23.595s-23.588,10.585-23.588,23.595
	C323.492,88.91,334.073,99.494,347.08,99.494z M347.08,67.307c4.736,0,8.589,3.855,8.589,8.595c0,4.738-3.853,8.593-8.589,8.593
	c-4.735,0-8.588-3.854-8.588-8.593C338.492,71.162,342.345,67.307,347.08,67.307z"/>
<path d="M52.991,106.078c13.006,0,23.587-10.584,23.587-23.593c0-13.01-10.581-23.595-23.587-23.595
	c-13.007,0-23.589,10.585-23.589,23.595C29.401,95.494,39.983,106.078,52.991,106.078z M52.991,73.891
	c4.735,0,8.587,3.855,8.587,8.595c0,4.738-3.852,8.593-8.587,8.593c-4.736,0-8.589-3.854-8.589-8.593
	C44.401,77.746,48.254,73.891,52.991,73.891z"/>
<g>
</g>
<g>
</g>
<g>
</g>
<g>
</g>
<g>
</g>
<g>
</g>
<g>
</g>
<g>
</g>
<g>
</g>
<g>
</g>
<g>
</g>
<g>
</g>
<g>
</g>
<g>
</g>
<g>
</g>
</svg>
