<?xml version="1.0" encoding="iso-8859-1"?>
<!-- Generator: Adobe Illustrator 19.0.0, SVG Export Plug-In . SVG Version: 6.00 Build 0)  -->
<svg version="1.1" id="Capa_1" xmlns="http://www.w3.org/2000/svg" xmlns:xlink="http://www.w3.org/1999/xlink" x="0px" y="0px"
	 viewBox="0 0 512 512" style="enable-background:new 0 0 512 512;" xml:space="preserve">
<path style="fill:#E0230D;" d="M199.932,102.686c7.97,83.51-69.92,91.69-61.95,175.19c1.84,19.25,7.43,33.61,14.98,45.37
	c-14.51-15.3-38.02-31.9-40.93-62.4c-7.98-83.51,69.92-91.69,61.94-175.2c-2.91-30.5-6.43-47.11-20.95-62.4
	C174.502,42.076,195.942,60.926,199.932,102.686z"/>
<path style="fill:#FF5440;" d="M183.972,85.646c7.98,83.51-69.92,91.69-61.94,175.2c2.91,30.5,16.42,47.1,30.93,62.4
	c-21.46-18.84-42.9-37.69-46.89-79.44c-7.97-83.51,69.92-91.69,61.95-175.19c-1.84-19.26-7.43-33.62-15-45.37
	C167.542,38.536,181.062,55.146,183.972,85.646z"/>
<path style="fill:#E0230D;" d="M302.932,102.686c7.97,83.51-69.92,91.69-61.95,175.19c1.84,19.25,7.43,33.61,14.98,45.37
	c-14.51-15.3-38.02-31.9-40.93-62.4c-7.98-83.51,69.92-91.69,61.94-175.2c-2.91-30.5-6.43-47.11-20.95-62.4
	C277.502,42.076,298.942,60.926,302.932,102.686z"/>
<path style="fill:#FF5440;" d="M286.972,85.646c7.98,83.51-69.92,91.69-61.94,175.2c2.91,30.5,16.42,47.1,30.93,62.4
	c-21.46-18.84-42.9-37.69-46.89-79.44c-7.97-83.51,69.92-91.69,61.95-175.19c-1.84-19.26-7.43-33.62-15-45.37
	C270.542,38.536,284.062,55.146,286.972,85.646z"/>
<path style="fill:#E0230D;" d="M405.93,102.69c7.97,83.51-69.92,91.69-61.95,175.19c1.84,19.25,7.43,33.61,14.98,45.37
	c-14.51-15.3-38.02-31.9-40.93-62.4c-7.98-83.51,69.92-91.69,61.94-175.2c-2.91-30.5-6.43-47.11-20.95-62.4
	C380.5,42.08,401.94,60.93,405.93,102.69z"/>
<path style="fill:#FF5440;" d="M389.97,85.65c7.98,83.51-69.92,91.69-61.94,175.2c2.91,30.5,16.42,47.1,30.93,62.4
	c-21.46-18.84-42.9-37.69-46.89-79.44c-7.97-83.51,69.92-91.69,61.95-175.19c-1.84-19.26-7.43-33.62-15-45.37
	C373.54,38.54,387.06,55.15,389.97,85.65z"/>
<path style="fill:#E0230D;" d="M441.81,293.25c38.99,20.74,62.69,48.06,62.69,78c0,64.39-109.528,117.49-245.29,117.49
	c58.79,0,205.29-53.17,205.29-117.49c0-15.24,4.6-29.8-5.22-43.16C458.09,315.72,451.96,303.96,441.81,293.25z"/>
<path style="fill:#FF5440;" d="M459.28,328.09c9.82,13.36,15.22,27.92,15.22,43.16c0,64.32-96.1,116.56-215.29,117.49
	c-1.07,0.01-2.14,0.01-3.21,0.01c-137.24,0-248.5-52.6-248.5-117.5c0-29.94,23.7-57.26,62.69-78
	c-11.36,11.99-17.69,25.29-17.69,39.28c0,53.14,91.11,96.22,203.5,96.22s203.5-43.08,203.5-96.22
	C459.5,331.04,459.43,329.56,459.28,328.09z"/>
<path d="M201.608,244.522c4.274,44.763,27.219,64.894,49.408,84.361c1.415,1.241,3.18,1.862,4.946,1.862
	c1.743,0,3.487-0.605,4.895-1.817c2.833-2.439,3.436-6.594,1.414-9.738c-7.75-12.056-12.271-25.801-13.82-42.021
	c-3.708-38.829,12.407-59.962,29.468-82.335c18.063-23.687,36.74-48.18,32.473-92.858c-4.275-44.767-27.227-64.899-49.422-84.369
	c-2.812-2.465-7.009-2.484-9.841-0.043c-2.833,2.44-3.435,6.595-1.412,9.739c7.759,12.062,12.284,25.808,13.833,42.025
	c3.708,38.829-12.407,59.962-29.468,82.336C216.019,175.352,197.341,199.844,201.608,244.522z M278.481,67.903
	c-0.459-4.814-1.152-9.448-2.084-13.916c9.703,12.296,16.96,27.398,19.063,49.415c3.708,38.83-12.408,59.963-29.469,82.337
	c-18.063,23.687-36.739,48.179-32.473,92.856c0.459,4.816,1.152,9.45,2.083,13.919c-9.702-12.296-16.959-27.4-19.063-49.418
	c-3.708-38.829,12.408-59.962,29.469-82.336C264.071,137.074,282.748,112.582,278.481,67.903z"/>
<path d="M148.016,328.884c1.415,1.241,3.18,1.862,4.946,1.862c1.743,0,3.487-0.605,4.895-1.817c2.833-2.439,3.436-6.594,1.414-9.738
	c-7.75-12.056-12.271-25.801-13.82-42.021c-3.708-38.829,12.407-59.962,29.468-82.335c18.063-23.687,36.74-48.18,32.473-92.858
	c-4.275-44.767-27.227-64.899-49.422-84.369c-2.812-2.465-7.009-2.484-9.841-0.043c-2.833,2.44-3.435,6.595-1.412,9.739
	c7.759,12.062,12.284,25.808,13.833,42.025c3.708,38.829-12.407,59.962-29.468,82.336c-18.063,23.687-36.74,48.179-32.473,92.857
	C102.882,289.285,125.827,309.416,148.016,328.884z M143.009,160.761c18.062-23.687,36.739-48.179,32.473-92.857
	c-0.459-4.814-1.152-9.448-2.084-13.916c9.703,12.296,16.96,27.398,19.063,49.415c3.708,38.83-12.408,59.963-29.469,82.337
	c-18.063,23.687-36.739,48.179-32.473,92.856c0.459,4.816,1.152,9.45,2.083,13.919c-9.702-12.296-16.959-27.4-19.063-49.418
	C109.832,204.268,125.947,183.135,143.009,160.761z"/>
<path d="M304.608,244.522c4.274,44.763,27.219,64.894,49.408,84.361c1.415,1.241,3.18,1.862,4.946,1.862
	c1.743,0,3.487-0.605,4.895-1.817c2.833-2.439,3.436-6.594,1.414-9.738c-7.75-12.056-12.271-25.801-13.82-42.021
	c-3.708-38.829,12.407-59.962,29.468-82.335c18.063-23.687,36.74-48.18,32.473-92.858c-4.275-44.767-27.227-64.899-49.422-84.369
	c-2.812-2.465-7.009-2.484-9.841-0.043c-2.833,2.44-3.435,6.595-1.412,9.739c7.759,12.062,12.284,25.808,13.833,42.025
	c3.708,38.829-12.407,59.962-29.468,82.336C319.019,175.352,300.341,199.844,304.608,244.522z M381.481,67.903
	c-0.459-4.814-1.152-9.448-2.084-13.916c9.703,12.296,16.96,27.398,19.063,49.415c3.708,38.83-12.408,59.963-29.469,82.337
	c-18.063,23.687-36.739,48.179-32.473,92.856c0.459,4.816,1.152,9.45,2.083,13.919c-9.702-12.296-16.959-27.4-19.063-49.418
	c-3.708-38.829,12.408-59.962,29.469-82.336C367.071,137.074,385.748,112.582,381.481,67.903z"/>
<path d="M445.336,286.625c-3.245-1.727-7.264-0.847-9.49,2.077c-2.227,2.925-2.006,7.032,0.522,9.701
	C446.741,309.355,452,320.838,452,332.531c0,21.493-17.977,42.434-50.619,58.962c-34.167,17.301-80.562,27.779-130.64,29.505
	c-4.14,0.143-7.38,3.613-7.237,7.753c0.143,4.141,3.605,7.426,7.754,7.237C382.849,432.144,467,387.667,467,332.531
	c0-5.302-0.762-10.523-2.277-15.646C485.731,333.48,497,352.223,497,371.254c0,28.323-24.324,55.422-68.49,76.306
	c-45.954,21.728-107.219,33.694-172.51,33.694S129.443,469.287,83.49,447.56C39.324,426.676,15,399.577,15,371.254
	c0-19.031,11.269-37.773,32.277-54.369C45.762,322.008,45,327.23,45,332.531c0,55.136,84.151,99.612,195.742,103.457
	c4.157,0.183,7.611-3.098,7.754-7.237s-3.098-7.61-7.237-7.753c-50.078-1.726-96.473-12.204-130.64-29.505
	C77.977,374.965,60,354.024,60,332.531c0-11.693,5.259-23.176,15.632-34.128c2.528-2.669,2.749-6.776,0.522-9.701
	c-2.227-2.924-6.245-3.804-9.49-2.077C23.675,309.5,0,339.556,0,371.254c0,34.449,27.374,66.363,77.078,89.865
	c47.917,22.657,111.459,35.135,178.922,35.135s131.005-12.478,178.922-35.135C484.626,437.617,512,405.703,512,371.254
	C512,339.556,488.325,309.5,445.336,286.625z"/>
<g>
</g>
<g>
</g>
<g>
</g>
<g>
</g>
<g>
</g>
<g>
</g>
<g>
</g>
<g>
</g>
<g>
</g>
<g>
</g>
<g>
</g>
<g>
</g>
<g>
</g>
<g>
</g>
<g>
</g>
</svg>
